<svg version="1.1" id="Ebene_1" xmlns="http://www.w3.org/2000/svg" xmlns:xlink="http://www.w3.org/1999/xlink" x="0px" y="0px"
	 width="800px" height="800px" viewBox="0 0 800 800" enable-background="new 0 0 800 800" xml:space="preserve">
<rect width="800" height="800"/>
<g>
	<path fill="#FFFFFF" d="M398.875,199.439c-1.058-0.039-2.109,0.175-3.067,0.624l-146.426,68.468
		c-2.337,1.093-3.831,3.438-3.835,6.019v11.413c0.001,3.676,2.98,6.655,6.656,6.656h13.312c0,8.65,5.556,16.187,13.311,18.861
		V433.39c-7.8,2.591-13.311,10.281-13.311,18.966v6.655h-1.027c-10.687,0-18.94,9.3-18.94,19.968v19.967h306.162v-19.967
		c0-10.668-8.254-19.968-18.94-19.968h-1.026v-6.655c0-8.685-5.512-16.375-13.312-18.966V311.48
		c7.755-2.675,13.312-10.211,13.312-18.861h13.312c3.675-0.001,6.654-2.98,6.655-6.656V274.55c-0.004-2.58-1.498-4.926-3.835-6.019
		l-146.425-68.468C400.642,199.685,399.767,199.473,398.875,199.439z M398.628,213.439l139.77,65.348v0.521H258.858v-0.521
		L398.628,213.439z M278.825,292.619h239.605c0,3.915-2.791,6.655-6.045,6.655H378.661h-26.623H284.87
		C281.617,299.274,278.825,296.534,278.825,292.619z M292.137,312.586h13.312v119.803h-13.312V312.586z M318.76,312.586h26.623
		v119.803H318.76V312.586z M358.694,312.586h13.311v119.803h-13.311V312.586z M385.316,312.586h26.623v119.803h-26.623V312.586z
		 M425.251,312.586h13.312v119.803h-13.312V312.586z M451.873,312.586h26.623v119.803h-26.623V312.586z M491.808,312.586h13.312
		v119.803h-13.312V312.586z M284.454,445.7h67.584h26.623h134.141c2.891,0,5.629,2.627,5.629,6.655v6.655H278.825v-6.655
		C278.825,448.327,281.563,445.7,284.454,445.7z M264.487,472.322h268.281c2.892,0,5.629,2.628,5.629,6.656v6.655H258.858v-6.655
		C258.858,474.95,261.596,472.322,264.487,472.322z"/>
	<g>
		<path fill="#FFFFFF" d="M142.058,555.319c6.703,0,11.623,1.295,14.762,3.885c3.139,2.591,4.708,6.597,4.708,12.02
			c0,5.363-1.586,9.31-4.753,11.837c-3.17,2.529-8.044,3.794-14.625,3.794h-7.861v13.162h-7.586v-44.697H142.058z M142.972,580.09
			c4.022,0,6.84-0.761,8.455-2.285c1.614-1.522,2.423-3.93,2.423-7.221c0-3.046-0.946-5.21-2.834-6.49
			c-1.89-1.279-4.936-1.919-9.141-1.919h-7.587v17.915H142.972z"/>
		<path fill="#FFFFFF" d="M188.856,593.344c3.474,0,6.229-1.188,8.272-3.564c2.041-2.377,3.062-5.605,3.062-9.689v-24.771h7.587
			v25.045c0,6.339-1.736,11.274-5.21,14.808c-3.474,3.535-8.044,5.302-13.711,5.302s-10.237-1.767-13.711-5.302
			c-3.474-3.533-5.21-8.469-5.21-14.808v-25.045h7.495v24.771c0,4.145,1.035,7.374,3.107,9.689
			C182.55,592.155,185.321,593.344,188.856,593.344z"/>
		<path fill="#FFFFFF" d="M219.659,600.017v-44.697h17.367c6.275,0,10.542,1.341,12.797,4.021c2.011,2.256,3.017,4.845,3.017,7.77
			c0,3.535-1.098,6.156-3.291,7.861c-0.731,0.548-1.828,1.158-3.291,1.828c2.803,0.609,5.012,1.859,6.627,3.747
			c1.614,1.89,2.423,4.236,2.423,7.038c0,3.535-1.266,6.49-3.794,8.867c-2.529,2.376-6.627,3.564-12.294,3.564H219.659z
			 M227.246,573.875h9.506c5.484,0,8.227-1.858,8.227-5.576c0-2.132-0.655-3.671-1.965-4.616c-1.312-0.943-3.368-1.417-6.17-1.417
			h-9.598V573.875z M227.246,593.069h11.791c2.925,0,5.087-0.471,6.49-1.416c1.4-0.944,2.102-2.574,2.102-4.891
			c0-3.96-3.169-5.941-9.506-5.941h-10.877V593.069z"/>
		<path fill="#FFFFFF" d="M264.813,600.017v-44.697h7.587v37.567h20.383v7.13H264.813z"/>
		<path fill="#FFFFFF" d="M301.009,555.319h7.587v44.697h-7.587V555.319z"/>
		<path fill="#FFFFFF" d="M353.931,587.677l4.846,4.936c-4.633,5.302-10.36,7.953-17.185,7.953c-6.764,0-12.386-2.179-16.864-6.536
			c-4.479-4.355-6.719-9.855-6.719-16.498c0-6.703,2.285-12.263,6.855-16.682c4.57-4.418,10.329-6.627,17.276-6.627
			c6.823,0,12.581,2.56,17.274,7.678l-4.752,5.21c-2.134-2.07-4.145-3.503-6.033-4.296c-1.89-0.791-4.113-1.188-6.673-1.188
			c-4.57,0-8.395,1.463-11.471,4.388c-3.078,2.925-4.616,6.643-4.616,11.151c0,4.449,1.522,8.227,4.57,11.334
			c3.046,3.108,6.673,4.662,10.877,4.662c2.56,0,4.768-0.426,6.627-1.279C349.803,591.029,351.798,589.628,353.931,587.677z"/>
		<path fill="#FFFFFF" d="M391.863,589.87l-4.479,10.146h-8.044l19.743-44.697h8.044l19.652,44.697h-8.044l-4.479-10.146H391.863z
			 M411.241,582.832l-8.135-18.372l-8.136,18.372H411.241z"/>
		<path fill="#FFFFFF" d="M459.047,583.746l11.699,16.271h-9.598l-10.694-15.082h-9.871v15.082h-7.587v-44.697h16.636
			c6.764,0,11.623,1.143,14.579,3.428c2.955,2.285,4.433,5.987,4.433,11.105C468.644,577.227,465.445,581.858,459.047,583.746z
			 M449.906,578.171c4.204,0,7.098-0.64,8.684-1.92c1.583-1.279,2.376-3.441,2.376-6.489c0-2.926-0.793-4.921-2.376-5.987
			c-1.586-1.065-4.419-1.6-8.501-1.6h-9.506v15.996H449.906z"/>
		<path fill="#FFFFFF" d="M512.61,587.677l4.845,4.936c-4.632,5.302-10.36,7.953-17.185,7.953c-6.764,0-12.386-2.179-16.864-6.536
			c-4.479-4.355-6.718-9.855-6.718-16.498c0-6.703,2.285-12.263,6.855-16.682c4.569-4.418,10.328-6.627,17.275-6.627
			c6.824,0,12.582,2.56,17.275,7.678l-4.753,5.21c-2.134-2.07-4.145-3.503-6.033-4.296c-1.89-0.791-4.113-1.188-6.672-1.188
			c-4.57,0-8.396,1.463-11.472,4.388c-3.078,2.925-4.616,6.643-4.616,11.151c0,4.449,1.522,8.227,4.57,11.334
			c3.047,3.108,6.673,4.662,10.877,4.662c2.56,0,4.768-0.426,6.627-1.279C508.481,591.029,510.477,589.628,512.61,587.677z"/>
		<path fill="#FFFFFF" d="M526.686,600.017v-44.697h7.587v19.378h22.12v-19.378h7.586v44.697h-7.586v-18.281h-22.12v18.281H526.686z
			"/>
		<path fill="#FFFFFF" d="M576.41,555.319h7.587v44.697h-7.587V555.319z"/>
		<path fill="#FFFFFF" d="M616.718,600.017h-8.409l-18.007-44.697h8.501l13.711,33.363l13.802-33.363h8.409L616.718,600.017z"/>
		<path fill="#FFFFFF" d="M672.566,555.319v7.038H648.71v11.883h21.389v6.673H648.71v11.974h24.588v7.13h-32.175v-44.697H672.566z"
			/>
	</g>
</g>
</svg>
